<?xml version="1.0" encoding="utf-8"?>
<!-- Generator: Adobe Illustrator 25.0.0, SVG Export Plug-In . SVG Version: 6.00 Build 0)  -->
<svg version="1.1" id="图层_1" xmlns="http://www.w3.org/2000/svg" xmlns:xlink="http://www.w3.org/1999/xlink" x="0px" y="0px"
	 viewBox="0 0 484.3 484.3" style="enable-background:new 0 0 484.3 484.3;" xml:space="preserve">
<style type="text/css">
	.st0{fill:#0052d9;}
</style>
<g>
	<path class="st0" d="M307.6,353c-2.8,0-5.5-1.1-7.6-3.2L183.7,233.6c-4.2-4.2-4.2-11.1,0-15.3s11.1-4.2,15.3,0l116.2,116.2
		c4.2,4.2,4.2,11.1,0,15.3C313.1,351.9,310.4,353,307.6,353L307.6,353z M344.6,316c-2.8,0-5.5-1.1-7.6-3.2l-79.7-79.7
		c-4.2-4.2-4.2-11.1,0-15.3c4.2-4.2,11.1-4.2,15.3,0l79.7,79.7c4.2,4.2,4.2,11.1,0,15.3C350.3,314.8,347.5,316,344.6,316L344.6,316z
		 M270.5,390.1c-2.8,0-5.5-1.1-7.6-3.2l-79.7-79.7c-4.2-4.2-4.2-11.1,0-15.3c4.2-4.2,11.1-4.2,15.3,0l79.7,79.7
		c4.2,4.2,4.2,11.1,0,15.3C276.1,389,273.3,390.1,270.5,390.1z"/>
	<path d="M237,414.7c-8.7,0-16.8-3.4-22.9-9.5L44.3,235.4c-12.6-12.6-12.6-33.2,0-45.9L154.9,78.8c12.3-12.3,33.6-12.3,45.9,0
		l169.8,169.8c12.6,12.6,12.6,33.2,0,45.9L259.9,405.2C253.7,411.3,245.6,414.7,237,414.7z M177.8,90.9c-2.9,0-5.6,1.1-7.6,3.2
		L59.5,204.8c-4.2,4.2-4.2,11.1,0,15.3l169.8,169.8c4.1,4.1,11.2,4.1,15.3,0l110.7-110.7c4.2-4.2,4.2-11.1,0-15.3L185.5,94.1
		C183.4,92,180.7,90.9,177.8,90.9L177.8,90.9z"/>
	<path d="M364.7,295.9c-2.8,0-5.5-1.1-7.6-3.2c-4.2-4.2-4.2-11.1,0-15.3l69.6-69.6c1.5-1.5,1.5-4,0-5.6l-71.9-71.9
		c-1.5-1.5-4-1.5-5.6,0l-56.1,56.1c-4.2,4.2-11.1,4.2-15.3,0s-4.2-11.1,0-15.3l56.2-56.2c10-10,26.2-10,36.2,0l71.8,71.9
		c10,10,10,26.2,0,36.2l-69.6,69.6C370.4,294.7,367.6,295.8,364.7,295.9L364.7,295.9z"/>
</g>
</svg>
