<?xml version="1.0" encoding="utf-8"?>
<!-- Generator: Adobe Illustrator 25.0.0, SVG Export Plug-In . SVG Version: 6.00 Build 0)  -->
<svg version="1.1" id="图层_1" xmlns="http://www.w3.org/2000/svg" xmlns:xlink="http://www.w3.org/1999/xlink" x="0px" y="0px"
	 viewBox="0 0 484.3 484.3" style="enable-background:new 0 0 484.3 484.3;" xml:space="preserve">
<style type="text/css">
	.st0{fill:#0052d9;}
</style>
<g>
	<path class="st0" d="M319.6,63c8.1-1.3,16.6,0.5,23.5,4.7c6.7,4,12,10.2,15.1,17.4c4.6,10.4,4.5,22.8-0.4,33.1
		c-3.4,7.5-9.3,13.8-16.6,17.6c-7,3.7-15.2,5-23,3.5c-8.1-1.5-15.6-6-20.9-12.3c-6.3-7.3-9.7-17-9.4-26.7c0.2-8.5,3.1-16.8,8.4-23.6
		C302,69.5,310.5,64.4,319.6,63L319.6,63z"/>
	<path d="M164.9,82.8c11.5-2.3,23.3,0.4,33.9,4.8c16.1,6.7,30.3,17.2,43.3,28.8c11.2-10.3,23.7-19.2,37.4-26.1
		c-1.5,7.7-1.6,15.7,0.2,23.4c-8.2,4.8-15.8,10.6-22.8,17c10.5,11.3,20.4,23.2,29.3,35.9c0.6,0.9,1.3,2,2.5,2
		c15.2,1.9,30.2,5,44.9,9.2c1.7-9.3,2.5-18.8,2.5-28.2c7.2-2,13.9-5.8,19.4-10.8c0.8,15.2-0.1,30.4-2.8,45.4
		c18.2,7,36,16.2,50.1,29.9c6.7,6.6,12.4,14.4,15.6,23.3c3.2,9.1,3.4,19.2,0.2,28.4c-3.5,10.5-10.6,19.4-18.7,26.7
		c-13.3,11.9-29.4,20.2-45.9,26.7c-0.9,0.2-1.4,1-1.1,1.9c2,11.9,3.1,24,2.9,36.1c-0.3,12.3-1.8,24.7-6.3,36.2
		c-3.2,8.2-8.2,15.9-15.4,21.1c-6.9,5.2-15.7,7.6-24.3,7.4c-11.4-0.2-22.3-4.2-32.4-9.3c-12.9-6.6-24.5-15.5-35.4-25.1
		c-8.3,7.4-17,14.2-26.4,20c-10,6.1-20.7,11.2-32.2,13.4c-8.9,1.7-18.5,1.3-26.8-2.5c-7.2-3.3-13.2-9-17.4-15.7
		c-6.1-9.8-8.9-21.3-10.2-32.7c-1.8-16.7-0.4-33.7,2.4-50.2c-17.4-6.8-34.4-15.4-48.2-28.1c-9-8.3-16.5-18.7-19.1-30.9
		c-2.2-10.3-0.2-21.3,4.8-30.6c5.4-10,13.7-18.2,22.8-25c12-9,25.6-15.7,39.6-21c-2.5-15.5-4-31.3-2.6-47c1.2-13.4,4.2-27,12-38.2
		C146.5,90.7,155.2,84.6,164.9,82.8 M160.1,111.6c-7.1,6.9-9.9,17-11.2,26.6c-1.5,13.2-0.4,26.5,1.8,39.6
		c14.7-4.1,29.6-7.2,44.8-9.1c1.1,0,1.8-0.7,2.4-1.6c9-12.8,19-24.9,29.6-36.3c-5.4-4.8-11-9.3-17.1-13.4
		c-8.9-5.9-18.8-11.1-29.6-12.3C173.3,104.1,165.4,106.3,160.1,111.6 M242.2,145.2c-6.1,6.6-12,13.5-17.5,20.7
		c11.6-0.4,23.3-0.4,34.9,0C254.2,158.7,248.3,151.8,242.2,145.2 M208.1,189.1c-12.9,19.5-24,40.1-33.6,61.5
		c-0.6,0.9-0.4,1.9,0.1,2.8c9.5,21.3,20.7,41.7,33.4,61.2c22.7,2,45.5,2,68.2,0c12.9-19.5,24.1-40.2,33.6-61.5
		c0.5-0.8,0.3-1.8-0.1-2.6c-9.5-21.3-20.7-41.9-33.5-61.3C253.6,187.1,230.7,187.1,208.1,189.1 M155.2,198.5c2.2,9,5,17.8,8.1,26.5
		c5.5-10.9,11.3-21.7,17.5-32.2C172.2,194.2,163.6,196.2,155.2,198.5 M303.5,192.8c6.2,10.5,12.1,21.3,17.5,32.2
		c3.2-8.7,5.9-17.5,8.1-26.5C320.7,196.2,312.1,194.2,303.5,192.8 M102.4,223.2c-6.2,5.1-11.8,11.4-14.6,19.1
		c-2.4,6.3-2.2,13.5,0.3,19.7c3.4,8.5,10,15.2,17.2,20.6c9.3,6.9,19.9,12,30.7,16.2c4-15.5,8.9-30.7,14.9-45.5
		c0.6-1,0.4-2.2-0.1-3.2c-6-14.8-10.8-29.9-14.8-45.4C124,209.4,112.3,215.1,102.4,223.2 M348.4,204.8c-4,15.6-9,30.9-15,45.9
		c-0.6,1-0.1,2.1,0.3,3c6,14.7,10.8,29.8,14.7,45.1c11.3-4.3,22.3-9.7,32-17.1c6.8-5.3,12.9-11.9,16-20c2.5-6.7,2.4-14.1-0.4-20.7
		c-3.5-8.3-10-14.8-17.1-20.1C369.6,214,359.1,208.9,348.4,204.8 M155.1,305.1c8.4,2.3,17,4.4,25.6,5.7c-6.1-10.5-12-21.2-17.4-32.1
		C160.1,287.3,157.5,296.2,155.1,305.1 M317.9,284.7c-4.4,8.9-9.5,17.5-14.4,26.1c8.6-1.4,17.2-3.4,25.6-5.7
		c-2.3-8.9-5-17.7-8.2-26.4C319.9,280.7,318.9,282.7,317.9,284.7 M150.6,325.9c-2.3,13.9-3.5,28.1-1.4,42.1
		c1.4,8.4,4.1,17.1,10.1,23.4c4.3,4.5,10.4,7.2,16.6,7.4c8.3,0.4,16.4-2.5,23.8-6.2c10.1-5.1,19.2-12.1,27.6-19.6
		c-10.8-11.6-20.8-23.9-30-36.8c-0.6-1.1-2-1.1-3-1.3C179.6,333.1,165,329.9,150.6,325.9 M288.7,335.1c-1.2-0.1-1.8,1.1-2.4,1.9
		c-8.9,12.7-18.8,24.7-29.4,36c8.4,7.5,17.4,14.4,27.5,19.6c7.4,3.7,15.5,6.6,23.8,6.2c6.6-0.2,13.2-3.2,17.5-8.2
		c6-6.8,8.4-15.8,9.6-24.5c1.7-13.3,0.5-26.9-1.7-40C318.9,330,303.9,333.2,288.7,335.1 M224.5,337.7c5.6,7.1,11.4,14.1,17.6,20.7
		c6.3-6.6,12.1-13.6,17.6-20.8C248,338.2,236.3,338.2,224.5,337.7L224.5,337.7z"/>
</g>
</svg>
