<?xml version="1.0" encoding="utf-8"?>
<!-- Generator: Adobe Illustrator 25.0.0, SVG Export Plug-In . SVG Version: 6.00 Build 0)  -->
<svg version="1.1" id="图层_1" xmlns="http://www.w3.org/2000/svg" xmlns:xlink="http://www.w3.org/1999/xlink" x="0px" y="0px"
	 viewBox="0 0 484.3 484.3" style="enable-background:new 0 0 484.3 484.3;" xml:space="preserve">
<style type="text/css">
	.st0{fill:#0052d9;}
</style>
<g>
	<path class="st0" d="M243.3,456.2c-5.2,0-9.5-4.3-9.5-9.5v-85c0-5.2,4.3-9.5,9.5-9.5c5.2,0,9.5,4.3,9.5,9.5v85
		C252.8,451.9,248.5,456.2,243.3,456.2L243.3,456.2z"/>
	<path class="st0" d="M201,426c-5.2,0-9.5-4.3-9.5-9.5v-54.9c0-5.2,4.3-9.5,9.5-9.5c5.2,0,9.5,4.3,9.5,9.5v54.9
		C210.5,421.8,206.2,426,201,426L201,426z"/>
	<path class="st0" d="M286.8,426c-5.2,0-9.5-4.3-9.5-9.5v-54.9c0-5.2,4.3-9.5,9.5-9.5c5.2,0,9.5,4.3,9.5,9.5v54.9
		C296.3,421.8,292,426,286.8,426L286.8,426z"/>
</g>
<path d="M157.3,371c-5.2,0-9.5-4.3-9.5-9.5V123c0-5.2,4.3-9.5,9.5-9.5c5.2,0,9.5,4.3,9.5,9.5v238.5C166.8,366.7,162.6,371,157.3,371
	L157.3,371z M327.5,371c-5.2,0-9.5-4.3-9.5-9.5V123c0-5.2,4.2-9.5,9.5-9.5c5.2,0,9.5,4.2,9.5,9.5c0,0,0,0,0,0v238.5
	C337,366.7,332.8,371,327.5,371z M240.8,242c-18.8,0-34-15.2-34-34s15.2-34,34-34s34,15.2,34,34v0C274.8,226.7,259.6,242,240.8,242
	L240.8,242z M240.8,192.9c-8.3,0-15,6.7-15,15c0,8.3,6.7,15,15,15c8.3,0,15-6.7,15-15l0,0C255.8,199.7,249.1,192.9,240.8,192.9z"/>
<path d="M395.8,371H88.5c-5.2,0-9.5-4.2-9.5-9.5s4.2-9.5,9.5-9.5c0,0,0,0,0,0h307.3c5.2,0,9.5,4.3,9.5,9.5
	C405.3,366.7,401.1,371,395.8,371z"/>
<path d="M88.6,371c-5.2,0-9.5-4.3-9.5-9.5v-68.1c0-5.2,4.3-9.5,9.5-9.5c5.2,0,9.5,4.3,9.5,9.5v68.1C98.1,366.7,93.8,371,88.6,371z
	 M395.8,371c-5.2,0-9.5-4.3-9.5-9.5v-68.3c0-5.2,4.3-9.5,9.5-9.5c5.2,0,9.5,4.3,9.5,9.5v68.3C405.3,366.7,401.1,371,395.8,371z"/>
<path d="M88.6,302.9c-2.5,0-4.9-1-6.7-2.8c-3.7-3.7-3.7-9.7,0-13.4l65.7-65.7c3.6-3.8,9.6-4.1,13.4-0.5c3.8,3.6,4.1,9.6,0.5,13.4
	c-0.2,0.2-0.3,0.3-0.5,0.5l-65.7,65.7C93.5,301.9,91.1,302.9,88.6,302.9L88.6,302.9z M395.8,302.7c-2.5,0-4.9-1-6.7-2.8l-68.7-68.7
	c-3.8-3.6-4.1-9.6-0.5-13.4c3.6-3.8,9.6-4.1,13.4-0.5c0.2,0.2,0.3,0.3,0.5,0.5l68.7,68.7c3.7,3.7,3.7,9.7,0,13.4
	C400.8,301.7,398.3,302.7,395.8,302.7z M157.3,132.5c-2.5,0-4.9-1-6.7-2.8c-3.7-3.7-3.7-9.7,0-13.4l85.3-85.1
	c3.8-3.6,9.9-3.4,13.4,0.5c3.4,3.7,3.4,9.3,0,13L164,129.7C162.2,131.5,159.8,132.5,157.3,132.5L157.3,132.5z"/>
<path d="M327.5,132.5c-2.5,0-4.9-1-6.7-2.8l-84.9-85.1c-3.8-3.6-4.1-9.6-0.5-13.4c3.6-3.8,9.6-4.1,13.4-0.5c0.2,0.2,0.3,0.3,0.5,0.5
	l85.1,85.1c3.7,3.7,3.7,9.7,0,13.4c-1.8,1.8-4.2,2.8-6.7,2.8L327.5,132.5z"/>
</svg>
