<?xml version="1.0" encoding="utf-8"?>
<!-- Generator: Adobe Illustrator 25.0.0, SVG Export Plug-In . SVG Version: 6.00 Build 0)  -->
<svg version="1.1" id="图层_1" xmlns="http://www.w3.org/2000/svg" xmlns:xlink="http://www.w3.org/1999/xlink" x="0px" y="0px"
	 viewBox="0 0 484.3 484.3" style="enable-background:new 0 0 484.3 484.3;" xml:space="preserve">
<style type="text/css">
	.st0{fill:#0052d9;}
</style>
<path d="M330.7,189l-14.6,14.6c6.9,12.6,10.8,27,10.8,42.4c0,48.8-39.8,88.6-88.6,88.6s-88.6-39.8-88.6-88.6s39.8-88.6,88.6-88.6
	c15.3,0,29.7,3.9,42.4,10.8l14.6-14.6c-16.6-10.3-36.1-16.2-57-16.2c-59.9,0-108.7,48.7-108.7,108.7s48.7,108.7,108.7,108.7
	S346.9,306,346.9,246.1C346.9,225.2,341,205.6,330.7,189z"/>
<path class="st0" d="M290,229.8l-17.6,17.6c-0.7,18.4-15.7,33-34.2,33c-18.9,0-34.3-15.3-34.3-34.3c0-18.5,14.6-33.6,33-34.2
	l17.6-17.6c-5.2-1.7-10.6-2.6-16.3-2.6c-29.9,0-54.3,24.4-54.3,54.3c0,29.9,24.4,54.3,54.3,54.3s54.3-24.4,54.3-54.3
	C292.5,240.4,291.7,234.9,290,229.8z"/>
<path d="M380.1,161l-14.6,14.6c11.6,20.9,18.2,44.9,18.2,70.5c0,80.2-65.2,145.4-145.4,145.4S92.8,326.3,92.8,246.1
	S158,100.6,238.2,100.6c25.6,0,49.6,6.6,70.5,18.2l14.6-14.6c-24.9-15-54-23.6-85.1-23.6c-91.3,0-165.5,74.2-165.5,165.5
	S147,411.6,238.2,411.6s165.5-74.2,165.5-165.5C403.7,215,395.1,185.8,380.1,161z"/>
<path d="M358.4,161.4l-19.1-2.1l-94.3,94.3c-3.9,3.9-10.3,3.9-14.2,0c-3.9-3.9-3.9-10.3,0-14.2l94.3-94.3l-2.1-19.1l53.2-53.2
	l7.1,28.4l28.4,7.1L358.4,161.4z"/>
</svg>
