<svg 
 xmlns="http://www.w3.org/2000/svg"
 xmlns:xlink="http://www.w3.org/1999/xlink"
 width="13px" height="13px">
<path fill-rule="evenodd"  fill="#ffffff"
 d="M5.930,0.870 L0.856,5.934 C0.740,6.024 0.650,6.141 0.598,6.281 C0.596,6.291 0.594,6.297 0.594,6.303 C0.557,6.385 0.545,6.476 0.541,6.566 C0.541,6.579 0.531,6.593 0.531,6.605 C0.531,6.630 0.547,6.650 0.547,6.675 C0.551,6.729 0.564,6.782 0.582,6.835 C0.598,6.899 0.625,6.956 0.654,7.013 C0.672,7.049 0.697,7.081 0.722,7.114 C0.744,7.143 0.755,7.180 0.786,7.206 L5.930,12.343 C6.261,12.675 6.800,12.675 7.127,12.343 C7.458,12.014 7.458,11.476 7.127,11.144 L3.427,7.449 L11.678,7.449 C12.151,7.449 12.540,7.065 12.540,6.593 C12.540,6.121 12.153,5.737 11.678,5.737 L3.453,5.737 L7.127,2.066 C7.458,1.740 7.458,1.200 7.127,0.870 C6.799,0.541 6.261,0.541 5.930,0.870 L5.930,0.870 Z"/>
</svg>