<?xml version="1.0" encoding="utf-8"?>
<!-- Generator: Adobe Illustrator 16.0.0, SVG Export Plug-In . SVG Version: 6.00 Build 0)  -->
<!DOCTYPE svg PUBLIC "-//W3C//DTD SVG 1.1//EN" "http://www.w3.org/Graphics/SVG/1.1/DTD/svg11.dtd">
<svg version="1.1" id="图层_1" xmlns="http://www.w3.org/2000/svg" xmlns:xlink="http://www.w3.org/1999/xlink" x="0px" y="0px"
	 width="21px" height="13px" viewBox="0 0 21 13" enable-background="new 0 0 21 13" xml:space="preserve">
<path fill="#132f3d" d="M15.132,0.87l5.074,5.064c0.116,0.09,0.206,0.208,0.257,0.347c0.003,0.01,0.005,0.017,0.005,0.023
	c0.037,0.082,0.05,0.172,0.054,0.262c0,0.013,0.01,0.027,0.01,0.039c0,0.025-0.016,0.045-0.016,0.071
	c-0.004,0.052-0.018,0.106-0.035,0.159c-0.018,0.064-0.043,0.121-0.072,0.179c-0.018,0.035-0.043,0.067-0.068,0.101
	c-0.021,0.028-0.033,0.065-0.064,0.093l-5.144,5.136c-0.331,0.332-0.87,0.332-1.196,0c-0.332-0.329-0.332-0.866,0-1.198l3.699-3.695
	H9.384c-0.473,0-0.862-0.385-0.862-0.856c0-0.473,0.387-0.857,0.862-0.857h8.226l-3.674-3.67c-0.332-0.326-0.332-0.866,0-1.196
	C14.262,0.542,14.801,0.542,15.132,0.87L15.132,0.87z M6.243,6.599c0,0.471-0.385,0.856-0.858,0.856
	c-0.471,0-0.855-0.382-0.855-0.856s0.384-0.856,0.855-0.856C5.86,5.741,6.243,6.125,6.243,6.599L6.243,6.599z M2.245,6.599
	c0,0.471-0.383,0.856-0.858,0.856c-0.471,0-0.856-0.382-0.856-0.856s0.385-0.856,0.856-0.856C1.862,5.741,2.245,6.125,2.245,6.599
	L2.245,6.599z"/>
</svg>
