<svg 
 xmlns="http://www.w3.org/2000/svg"
 xmlns:xlink="http://www.w3.org/1999/xlink"
 width="21px" height="13px">
<path fill-rule="evenodd"  fill="#fff"
 d="M15.132,0.870 L20.206,5.934 C20.322,6.024 20.412,6.142 20.463,6.281 C20.466,6.291 20.468,6.298 20.468,6.304 C20.505,6.386 20.517,6.476 20.521,6.566 C20.521,6.579 20.531,6.593 20.531,6.605 C20.531,6.630 20.515,6.650 20.515,6.676 C20.511,6.728 20.498,6.782 20.480,6.835 C20.463,6.899 20.437,6.956 20.408,7.013 C20.390,7.049 20.365,7.081 20.340,7.114 C20.318,7.143 20.307,7.180 20.276,7.207 L15.132,12.343 C14.801,12.675 14.262,12.675 13.935,12.343 C13.604,12.014 13.604,11.476 13.935,11.144 L17.635,7.449 L9.384,7.449 C8.911,7.449 8.522,7.065 8.522,6.593 C8.522,6.120 8.909,5.736 9.384,5.736 L17.609,5.736 L13.935,2.066 C13.604,1.740 13.604,1.200 13.935,0.870 C14.262,0.542 14.801,0.542 15.132,0.870 L15.132,0.870 ZM6.243,6.599 C6.243,7.071 5.858,7.455 5.385,7.455 C4.914,7.455 4.530,7.073 4.530,6.599 C4.530,6.125 4.914,5.743 5.385,5.743 C5.860,5.741 6.243,6.125 6.243,6.599 L6.243,6.599 ZM2.245,6.599 C2.245,7.071 1.862,7.455 1.387,7.455 C0.916,7.455 0.531,7.073 0.531,6.599 C0.531,6.125 0.916,5.743 1.387,5.743 C1.862,5.741 2.245,6.125 2.245,6.599 L2.245,6.599 Z"/>
</svg>