<svg t="1736926579587" class="icon" viewBox="0 0 1024 1024" version="1.1" xmlns="http://www.w3.org/2000/svg" p-id="6230" width="24" height="24"><path d="M500.5 128.7c-209.4 0-379.8 170.4-379.8 379.8S291 888.3 500.5 888.3s379.8-170.4 379.8-379.8-170.4-379.8-379.8-379.8z m0 702.6c-178 0-322.8-144.8-322.8-322.8s144.8-322.8 322.8-322.8 322.8 144.8 322.8 322.8-144.8 322.8-322.8 322.8z" p-id="6231" fill="#999999"></path><path d="M645.4 595.9l-129.3-77.3V350.7c0-15.7-12.8-28.5-28.5-28.5s-28.5 12.8-28.5 28.5v184.1c0 10 5.3 19.3 13.9 24.4l143.2 85.6c4.6 2.7 9.6 4 14.6 4 9.7 0 19.1-4.9 24.5-13.9 8-13.4 3.6-30.9-9.9-39z" p-id="6232" fill="#999999"></path></svg>