<?xml version="1.0" encoding="utf-8"?>
<!-- Generator: Adobe Illustrator 25.0.0, SVG Export Plug-In . SVG Version: 6.00 Build 0)  -->
<svg version="1.1" id="图层_1" xmlns="http://www.w3.org/2000/svg" xmlns:xlink="http://www.w3.org/1999/xlink" x="0px" y="0px"
	 viewBox="0 0 400 400" style="enable-background:new 0 0 400 400;" xml:space="preserve">
<style type="text/css">
	.st0{fill:#004098;}
</style>
<path class="st0" d="M340.1,59.9c-77.2-77.2-202.9-77.2-280.1,0S-17.2,262.8,60,340s202.9,77.2,280.1,0S417.3,137.2,340.1,59.9z
	 M319.9,319.9C253.8,386,146.1,386,80,319.9S13.8,146.1,80,80s173.8-66.1,239.9,0S386,253.9,319.9,319.9z"/>
<path class="st0" d="M298.4,204.5h-96.8v-107c0-7.1-5.8-12.9-12.9-12.9c-7.1,0-12.9,5.8-12.9,12.9v110.4c0,0.4-0.5,9.6,5.7,16.2
	c4,4.1,9.4,6.3,16.5,6.3h100.4c7.1,0,12.9-5.8,12.9-12.9C311.2,210.2,305.5,204.5,298.4,204.5z"/>
</svg>
